# xmcd CD database file
# Copyright (C) 1996 Ti Kan
#
# Track frame offsets:
# 	183
# 	13510
# 	21643
# 	36378
# 	47143
# 	54748
# 	65380
# 	78670
# 	91825
# 	102963
# 	110660
# 	124845
# 	164290
# 	175665
#
# Disc length: 2462 seconds
#
# Revision: 1
# Processed by: cddbd v1.4b41PL1 Copyright (c) Steve Scherf et al.
# Submitted via: DiscPlay 3.4.1
#
DISCID=bc099c0e
DTITLE=Billie Hollyday - Billie's blues
DYEAR=1900
DGENRE=
TTITLE0=billie's blues
TTITLE1=miss brown to you
TTITLE2=don't be late
TTITLE3=lover come back to me
TTITLE4=moonlight in vermont
TTITLE5=ain't nobody's business
TTITLE6=he's funny that way
TTITLE7=my man
TTITLE8=i got it bad and that ain't good
TTITLE9=all of me
TTITLE10=god bless the child
TTITLE11=fine and mellow
TTITLE12=fooling myself
TTITLE13=when your lover has gone
EXTD=
EXTT0=
EXTT1=
EXTT2=
EXTT3=
EXTT4=
EXTT5=
EXTT6=
EXTT7=
EXTT8=
EXTT9=
EXTT10=
EXTT11=
EXTT12=
EXTT13=
PLAYORDER=
